<mxfile host="Electron" agent="Mozilla/5.0 (X11; Linux x86_64) AppleWebKit/537.36 (KHTML, like Gecko) draw.io/26.0.4 Chrome/128.0.6613.186 Electron/32.2.5 Safari/537.36" version="26.0.4">
  <diagram name="Page-1" id="ZqSJTtplXqupDLycaLoi">
    <mxGraphModel dx="1591" dy="1711" grid="1" gridSize="10" guides="1" tooltips="1" connect="1" arrows="1" fold="1" page="1" pageScale="1" pageWidth="850" pageHeight="1100" math="0" shadow="0">
      <root>
        <mxCell id="0" />
        <mxCell id="1" parent="0" />
        <mxCell id="HX1oWftYlolRNm-aeAf7-4" value="Viewer&lt;div&gt;Request&lt;/div&gt;" style="edgeStyle=orthogonalEdgeStyle;rounded=0;orthogonalLoop=1;jettySize=auto;html=1;entryX=0.25;entryY=0;entryDx=0;entryDy=0;entryPerimeter=0;" edge="1" parent="1" source="HX1oWftYlolRNm-aeAf7-2" target="HX1oWftYlolRNm-aeAf7-1">
          <mxGeometry x="-0.0623" y="-10" relative="1" as="geometry">
            <Array as="points">
              <mxPoint x="406" y="441" />
              <mxPoint x="406" y="441" />
            </Array>
            <mxPoint as="offset" />
          </mxGeometry>
        </mxCell>
        <mxCell id="HX1oWftYlolRNm-aeAf7-5" value="Viewer&lt;div&gt;Response&lt;/div&gt;" style="edgeStyle=orthogonalEdgeStyle;rounded=0;orthogonalLoop=1;jettySize=auto;html=1;exitX=0.75;exitY=0;exitDx=0;exitDy=0;exitPerimeter=0;" edge="1" parent="1" source="HX1oWftYlolRNm-aeAf7-1" target="HX1oWftYlolRNm-aeAf7-2">
          <mxGeometry x="0.0638" y="-12" relative="1" as="geometry">
            <Array as="points">
              <mxPoint x="444" y="441" />
              <mxPoint x="444" y="441" />
            </Array>
            <mxPoint as="offset" />
          </mxGeometry>
        </mxCell>
        <mxCell id="HX1oWftYlolRNm-aeAf7-6" value="Origin&lt;div&gt;Request&lt;/div&gt;" style="edgeStyle=orthogonalEdgeStyle;rounded=0;orthogonalLoop=1;jettySize=auto;html=1;entryX=0.25;entryY=1;entryDx=0;entryDy=0;entryPerimeter=0;" edge="1" parent="1" source="HX1oWftYlolRNm-aeAf7-3" target="HX1oWftYlolRNm-aeAf7-1">
          <mxGeometry x="0.0904" y="10" relative="1" as="geometry">
            <Array as="points">
              <mxPoint x="406" y="651" />
              <mxPoint x="406" y="651" />
            </Array>
            <mxPoint as="offset" />
          </mxGeometry>
        </mxCell>
        <mxCell id="HX1oWftYlolRNm-aeAf7-7" style="edgeStyle=orthogonalEdgeStyle;rounded=0;orthogonalLoop=1;jettySize=auto;html=1;exitX=0.75;exitY=1;exitDx=0;exitDy=0;exitPerimeter=0;" edge="1" parent="1" source="HX1oWftYlolRNm-aeAf7-1" target="HX1oWftYlolRNm-aeAf7-3">
          <mxGeometry relative="1" as="geometry">
            <Array as="points">
              <mxPoint x="444" y="651" />
              <mxPoint x="444" y="651" />
            </Array>
          </mxGeometry>
        </mxCell>
        <mxCell id="HX1oWftYlolRNm-aeAf7-8" value="Origin&lt;div&gt;Response&lt;/div&gt;" style="edgeLabel;html=1;align=center;verticalAlign=middle;resizable=0;points=[];" vertex="1" connectable="0" parent="HX1oWftYlolRNm-aeAf7-7">
          <mxGeometry x="-0.0483" relative="1" as="geometry">
            <mxPoint x="12" y="-2" as="offset" />
          </mxGeometry>
        </mxCell>
        <mxCell id="HX1oWftYlolRNm-aeAf7-1" value="" style="sketch=0;points=[[0,0,0],[0.25,0,0],[0.5,0,0],[0.75,0,0],[1,0,0],[0,1,0],[0.25,1,0],[0.5,1,0],[0.75,1,0],[1,1,0],[0,0.25,0],[0,0.5,0],[0,0.75,0],[1,0.25,0],[1,0.5,0],[1,0.75,0]];outlineConnect=0;fontColor=#232F3E;fillColor=#8C4FFF;strokeColor=#ffffff;dashed=0;verticalLabelPosition=bottom;verticalAlign=top;align=center;html=1;fontSize=12;fontStyle=0;aspect=fixed;shape=mxgraph.aws4.resourceIcon;resIcon=mxgraph.aws4.cloudfront;" vertex="1" parent="1">
          <mxGeometry x="386" y="511" width="78" height="78" as="geometry" />
        </mxCell>
        <mxCell id="HX1oWftYlolRNm-aeAf7-2" value="" style="sketch=0;outlineConnect=0;fontColor=#232F3E;gradientColor=none;fillColor=#232F3D;strokeColor=none;dashed=0;verticalLabelPosition=bottom;verticalAlign=top;align=center;html=1;fontSize=12;fontStyle=0;aspect=fixed;pointerEvents=1;shape=mxgraph.aws4.client;" vertex="1" parent="1">
          <mxGeometry x="386" y="341" width="78" height="76" as="geometry" />
        </mxCell>
        <mxCell id="HX1oWftYlolRNm-aeAf7-3" value="" style="sketch=0;outlineConnect=0;fontColor=#232F3E;gradientColor=none;fillColor=#232F3D;strokeColor=none;dashed=0;verticalLabelPosition=bottom;verticalAlign=top;align=center;html=1;fontSize=12;fontStyle=0;aspect=fixed;pointerEvents=1;shape=mxgraph.aws4.traditional_server;" vertex="1" parent="1">
          <mxGeometry x="402.5" y="681" width="45" height="78" as="geometry" />
        </mxCell>
      </root>
    </mxGraphModel>
  </diagram>
</mxfile>
